<svg id="svg" version="1.1" xmlns="http://www.w3.org/2000/svg" xmlns:xlink="http://www.w3.org/1999/xlink" width="400" height="400" viewBox="0, 0, 400,400"><g id="svgg"><path id="path0" d="M187.800 88.442 C 185.820 88.626,183.480 88.950,182.600 89.162 C 181.720 89.374,179.290 89.848,177.200 90.216 C 167.571 91.910,149.640 98.729,141.800 103.677 C 124.506 114.593,112.412 126.295,103.224 141.000 C 102.262 142.540,101.067 144.450,100.569 145.244 C 99.328 147.222,95.395 155.103,94.360 157.686 C 92.742 161.723,90.739 167.412,90.164 169.600 C 89.846 170.810,89.430 172.079,89.239 172.420 C 89.049 172.761,88.679 174.111,88.418 175.420 C 88.157 176.729,87.693 178.970,87.388 180.400 C 84.600 193.464,84.619 213.849,87.430 224.826 C 87.743 226.051,88.000 227.486,88.000 228.015 C 88.000 229.811,92.546 243.663,94.655 248.295 C 99.294 258.479,101.598 262.385,109.387 273.266 C 115.216 281.407,128.408 293.224,139.600 300.327 C 145.750 304.230,156.177 309.111,163.200 311.374 C 165.730 312.189,168.340 313.042,169.000 313.270 C 171.658 314.188,179.561 315.790,185.800 316.677 C 195.255 318.020,213.975 317.420,221.352 315.537 C 222.206 315.319,223.913 314.977,225.146 314.776 C 247.633 311.116,277.024 292.066,291.891 271.514 C 295.130 267.035,296.066 265.650,299.294 260.558 C 302.864 254.925,307.884 243.175,309.959 235.593 C 310.351 234.159,310.860 232.629,311.090 232.193 C 311.319 231.757,311.626 230.590,311.771 229.600 C 311.916 228.610,312.287 226.630,312.596 225.200 C 314.766 215.141,315.405 196.380,313.884 187.400 C 312.224 177.601,310.348 169.594,309.012 166.600 C 308.717 165.940,308.301 164.770,308.086 164.000 C 306.673 158.927,300.688 146.814,296.231 140.007 C 286.825 125.643,272.429 111.910,258.000 103.537 C 251.066 99.514,240.145 94.705,234.400 93.147 C 233.630 92.938,231.560 92.336,229.800 91.810 C 228.040 91.283,224.890 90.559,222.800 90.200 C 220.710 89.841,218.280 89.378,217.400 89.171 C 212.740 88.075,196.153 87.667,187.800 88.442 " stroke="none" fill="#d1f1f4" fill-rule="evenodd"></path><path id="path1" d="M187.400 65.846 C 179.505 66.615,166.810 68.855,164.055 69.965 C 163.475 70.199,161.380 70.854,159.400 71.421 C 151.493 73.684,139.148 79.100,130.600 84.055 C 127.644 85.769,118.704 91.733,116.800 93.261 C 107.197 100.970,100.423 107.420,95.178 113.850 C 93.540 115.858,91.570 118.275,90.800 119.223 C 89.286 121.084,83.425 129.754,81.484 133.000 C 79.400 136.488,74.552 146.458,73.023 150.400 C 72.213 152.490,71.385 154.560,71.183 155.000 C 70.465 156.566,68.845 161.440,68.192 164.000 C 67.827 165.430,67.392 166.780,67.224 167.000 C 67.057 167.220,66.700 168.570,66.431 170.000 C 66.162 171.430,65.698 173.770,65.400 175.200 C 62.199 190.554,61.604 205.256,63.611 219.400 C 64.586 226.270,66.686 236.971,67.537 239.400 C 67.768 240.060,68.618 242.760,69.426 245.400 C 70.234 248.040,71.144 250.555,71.448 250.989 C 71.751 251.423,72.000 252.023,72.000 252.322 C 72.000 253.047,73.934 257.483,76.917 263.600 C 88.639 287.636,107.757 308.103,131.137 321.644 C 134.426 323.549,144.042 328.400,144.528 328.400 C 144.666 328.400,145.728 328.828,146.889 329.350 C 149.846 330.682,154.939 332.598,158.222 333.614 C 159.750 334.088,161.810 334.740,162.800 335.064 C 166.657 336.327,176.853 338.340,183.600 339.171 C 198.296 340.981,206.669 340.803,222.000 338.355 C 227.272 337.513,234.523 335.942,237.200 335.061 C 238.190 334.735,240.890 333.885,243.200 333.171 C 245.510 332.457,247.600 331.720,247.844 331.534 C 248.088 331.348,249.078 330.957,250.044 330.665 C 257.110 328.529,274.822 318.664,283.088 312.260 C 298.422 300.381,312.244 284.360,320.412 269.000 C 323.980 262.288,326.234 257.466,327.616 253.582 C 328.122 252.162,328.667 250.820,328.828 250.600 C 329.102 250.226,330.302 246.583,332.648 239.000 C 333.538 236.121,334.597 231.397,335.605 225.800 C 337.998 212.512,338.017 192.929,335.650 179.800 C 334.775 174.946,333.150 167.452,332.844 166.854 C 332.659 166.494,332.038 164.543,331.464 162.517 C 330.365 158.640,328.221 152.837,326.578 149.289 C 326.040 148.128,325.600 147.066,325.600 146.928 C 325.600 146.791,324.528 144.501,323.219 141.839 C 309.892 114.758,287.575 92.491,260.729 79.493 C 252.568 75.542,250.673 74.765,243.000 72.227 C 234.527 69.424,233.554 69.176,223.200 67.172 C 214.185 65.428,197.891 64.824,187.400 65.846 M217.006 77.161 C 220.309 77.594,223.459 78.114,224.006 78.317 C 224.553 78.520,225.990 78.810,227.200 78.962 C 228.410 79.114,229.940 79.407,230.600 79.613 C 231.260 79.819,233.420 80.457,235.400 81.032 C 247.992 84.685,263.415 92.006,271.600 98.215 C 272.810 99.133,274.353 100.168,275.029 100.515 C 275.705 100.863,276.512 101.453,276.822 101.826 C 277.131 102.199,278.828 103.592,280.592 104.920 C 284.702 108.014,294.801 118.109,297.678 122.000 C 298.898 123.650,300.299 125.360,300.789 125.799 C 301.280 126.239,301.954 127.125,302.287 127.769 C 302.621 128.413,303.756 130.127,304.811 131.577 C 308.206 136.245,313.742 146.170,316.090 151.800 C 319.806 160.708,322.895 170.151,323.615 174.800 C 323.802 176.010,324.129 177.720,324.342 178.600 C 327.170 190.301,327.370 210.802,324.792 224.600 C 324.586 225.700,324.164 228.040,323.854 229.800 C 323.544 231.560,322.730 234.777,322.045 236.949 C 321.360 239.121,320.800 241.140,320.800 241.436 C 320.800 241.731,320.538 242.564,320.218 243.286 C 319.898 244.009,318.683 247.011,317.518 249.958 C 314.411 257.816,309.939 266.344,305.645 272.600 C 304.437 274.360,302.910 276.610,302.252 277.600 C 301.595 278.590,300.414 280.143,299.628 281.051 C 298.843 281.960,297.124 283.998,295.810 285.580 C 283.958 299.849,264.803 313.444,246.800 320.363 C 243.830 321.505,240.890 322.700,240.268 323.019 C 239.645 323.339,238.812 323.600,238.417 323.600 C 238.022 323.600,235.921 324.154,233.749 324.830 C 231.577 325.507,228.630 326.228,227.200 326.431 C 225.770 326.635,224.240 326.967,223.800 327.169 C 221.999 327.997,207.636 329.310,200.200 329.328 C 187.020 329.358,169.905 326.656,160.000 322.980 C 144.526 317.238,132.568 310.894,123.282 303.502 C 122.247 302.677,120.452 301.275,119.294 300.385 C 116.261 298.054,107.410 289.384,104.600 285.992 C 103.280 284.398,101.460 282.263,100.556 281.247 C 99.651 280.231,98.414 278.590,97.806 277.600 C 97.198 276.610,96.023 274.900,95.196 273.800 C 87.596 263.702,78.259 241.781,76.028 228.800 C 72.357 207.446,72.361 197.127,76.047 176.400 C 76.301 174.970,77.006 172.090,77.613 170.000 C 78.220 167.910,78.836 165.660,78.982 165.000 C 79.889 160.883,85.175 148.702,89.246 141.345 C 92.581 135.319,96.829 128.884,100.169 124.800 C 105.275 118.556,106.987 116.638,111.059 112.600 C 115.922 107.777,115.661 108.007,121.466 103.416 C 129.029 97.433,134.146 94.139,143.000 89.551 C 147.165 87.394,159.773 82.273,162.075 81.805 C 162.804 81.657,164.480 81.186,165.800 80.759 C 169.752 79.480,170.510 79.285,172.600 79.008 C 173.700 78.861,175.500 78.499,176.600 78.202 C 178.513 77.685,187.363 76.557,192.000 76.239 C 197.146 75.886,211.246 76.406,217.006 77.161 " stroke="none" fill="#7da7b4" fill-rule="evenodd"></path><path id="path2" d="M191.200 51.029 C 190.430 51.116,187.910 51.376,185.600 51.606 C 178.783 52.287,170.357 53.652,165.400 54.878 C 163.640 55.314,161.160 55.923,159.889 56.233 C 157.260 56.873,145.607 60.757,145.000 61.195 C 144.780 61.354,144.060 61.668,143.400 61.893 C 139.657 63.168,124.995 70.305,123.016 71.815 C 122.306 72.357,121.599 72.800,121.446 72.800 C 121.293 72.800,120.680 73.134,120.084 73.543 C 119.488 73.952,117.290 75.431,115.200 76.830 C 113.110 78.230,109.981 80.460,108.246 81.787 C 106.511 83.114,104.621 84.549,104.046 84.975 C 99.193 88.570,85.669 102.273,81.186 108.136 C 43.642 157.239,37.735 217.419,65.081 272.200 C 66.728 275.500,68.509 278.773,69.038 279.473 C 69.567 280.174,70.000 280.880,70.000 281.044 C 70.000 281.318,75.690 289.841,77.717 292.603 C 83.563 300.569,91.081 308.855,98.653 315.678 C 103.519 320.063,108.931 324.400,109.536 324.400 C 109.723 324.400,110.214 324.773,110.627 325.230 C 111.273 325.943,115.070 328.527,122.943 333.610 C 128.679 337.313,144.543 344.332,154.400 347.528 C 175.036 354.219,203.038 356.251,224.200 352.592 C 226.180 352.249,228.700 351.811,229.800 351.618 C 237.089 350.338,250.953 346.058,259.000 342.604 C 265.644 339.752,276.769 334.140,277.600 333.221 C 277.710 333.100,278.430 332.657,279.200 332.238 C 280.515 331.522,288.724 326.022,289.736 325.178 C 289.991 324.965,290.920 324.259,291.800 323.609 C 292.680 322.959,294.193 321.836,295.162 321.114 C 302.003 316.013,316.459 300.992,321.173 294.086 C 322.086 292.750,322.960 291.598,323.116 291.528 C 323.528 291.342,329.499 282.340,329.835 281.397 C 329.991 280.959,330.435 280.240,330.821 279.800 C 334.210 275.935,345.286 249.557,346.622 242.167 C 346.778 241.305,347.048 240.322,347.222 239.983 C 347.664 239.123,349.834 227.734,350.363 223.500 C 350.603 221.575,351.025 218.425,351.300 216.500 C 351.965 211.843,351.953 194.236,351.280 188.800 C 349.238 172.291,347.671 165.271,342.976 151.600 C 342.258 149.510,341.284 146.900,340.811 145.800 C 340.338 144.700,339.647 143.094,339.276 142.232 C 337.468 138.036,331.890 127.098,330.343 124.714 C 329.384 123.236,327.815 120.806,326.856 119.314 C 325.898 117.821,324.584 115.880,323.938 115.000 C 323.292 114.120,322.456 112.934,322.081 112.364 C 317.198 104.937,303.898 91.221,294.048 83.453 C 290.184 80.406,279.128 72.800,278.563 72.800 C 278.405 72.800,277.711 72.369,277.021 71.843 C 267.552 64.621,239.445 54.849,221.200 52.436 C 219.330 52.188,216.450 51.802,214.800 51.576 C 211.749 51.159,193.753 50.742,191.200 51.029 M213.600 66.014 C 217.890 66.460,222.210 66.981,223.200 67.172 C 233.554 69.176,234.527 69.424,243.000 72.227 C 250.673 74.765,252.568 75.542,260.729 79.493 C 287.575 92.491,309.892 114.758,323.219 141.839 C 324.528 144.501,325.600 146.791,325.600 146.928 C 325.600 147.066,326.040 148.128,326.578 149.289 C 328.221 152.837,330.365 158.640,331.464 162.517 C 332.038 164.543,332.659 166.494,332.844 166.854 C 333.150 167.452,334.775 174.946,335.650 179.800 C 338.017 192.929,337.998 212.512,335.605 225.800 C 334.597 231.397,333.538 236.121,332.648 239.000 C 330.302 246.583,329.102 250.226,328.828 250.600 C 328.667 250.820,328.122 252.162,327.616 253.582 C 326.234 257.466,323.980 262.288,320.412 269.000 C 312.244 284.360,298.422 300.381,283.088 312.260 C 274.822 318.664,257.110 328.529,250.044 330.665 C 249.078 330.957,248.088 331.348,247.844 331.534 C 247.600 331.720,245.510 332.457,243.200 333.171 C 240.890 333.885,238.190 334.735,237.200 335.061 C 234.523 335.942,227.272 337.513,222.000 338.355 C 206.669 340.803,198.296 340.981,183.600 339.171 C 176.853 338.340,166.657 336.327,162.800 335.064 C 161.810 334.740,159.750 334.088,158.222 333.614 C 154.939 332.598,149.846 330.682,146.889 329.350 C 145.728 328.828,144.666 328.400,144.528 328.400 C 144.042 328.400,134.426 323.549,131.137 321.644 C 107.757 308.103,88.639 287.636,76.917 263.600 C 73.934 257.483,72.000 253.047,72.000 252.322 C 72.000 252.023,71.751 251.423,71.448 250.989 C 71.144 250.555,70.234 248.040,69.426 245.400 C 68.618 242.760,67.768 240.060,67.537 239.400 C 66.686 236.971,64.586 226.270,63.611 219.400 C 61.604 205.256,62.199 190.554,65.400 175.200 C 65.698 173.770,66.162 171.430,66.431 170.000 C 66.700 168.570,67.057 167.220,67.224 167.000 C 67.392 166.780,67.827 165.430,68.192 164.000 C 68.845 161.440,70.465 156.566,71.183 155.000 C 71.385 154.560,72.213 152.490,73.023 150.400 C 74.552 146.458,79.400 136.488,81.484 133.000 C 83.425 129.754,89.286 121.084,90.800 119.223 C 91.570 118.275,93.540 115.858,95.178 113.850 C 100.423 107.420,107.197 100.970,116.800 93.261 C 122.819 88.429,136.407 80.450,144.600 76.936 C 149.646 74.772,156.113 72.362,159.400 71.421 C 161.380 70.854,163.475 70.199,164.055 69.965 C 164.635 69.732,167.245 69.101,169.855 68.565 C 186.052 65.233,198.882 64.485,213.600 66.014 " stroke="none" fill="#3a7f91" fill-rule="evenodd"></path><path id="path3" d="M0.000 199.600 L 0.000 399.200 200.000 399.200 L 400.000 399.200 400.000 199.600 L 400.000 0.000 200.000 0.000 L 0.000 0.000 0.000 199.600 M214.800 51.576 C 216.450 51.802,219.330 52.188,221.200 52.436 C 239.445 54.849,267.552 64.621,277.021 71.843 C 277.711 72.369,278.405 72.800,278.563 72.800 C 279.128 72.800,290.184 80.406,294.048 83.453 C 303.898 91.221,317.198 104.937,322.081 112.364 C 322.456 112.934,323.292 114.120,323.938 115.000 C 324.584 115.880,325.898 117.821,326.856 119.314 C 327.815 120.806,329.384 123.236,330.343 124.714 C 331.890 127.098,337.468 138.036,339.276 142.232 C 339.647 143.094,340.338 144.700,340.811 145.800 C 341.284 146.900,342.258 149.510,342.976 151.600 C 347.671 165.271,349.238 172.291,351.280 188.800 C 351.953 194.236,351.965 211.843,351.300 216.500 C 351.025 218.425,350.603 221.575,350.363 223.500 C 349.834 227.734,347.664 239.123,347.222 239.983 C 347.048 240.322,346.778 241.305,346.622 242.167 C 345.286 249.557,334.210 275.935,330.821 279.800 C 330.435 280.240,329.991 280.959,329.835 281.397 C 329.499 282.340,323.528 291.342,323.116 291.528 C 322.960 291.598,322.086 292.750,321.173 294.086 C 316.459 300.992,302.003 316.013,295.162 321.114 C 294.193 321.836,292.680 322.959,291.800 323.609 C 290.920 324.259,289.991 324.965,289.736 325.178 C 288.724 326.022,280.515 331.522,279.200 332.238 C 278.430 332.657,277.710 333.100,277.600 333.221 C 276.769 334.140,265.644 339.752,259.000 342.604 C 250.953 346.058,237.089 350.338,229.800 351.618 C 228.700 351.811,226.180 352.249,224.200 352.592 C 203.038 356.251,175.036 354.219,154.400 347.528 C 144.543 344.332,128.679 337.313,122.943 333.610 C 115.070 328.527,111.273 325.943,110.627 325.230 C 110.214 324.773,109.723 324.400,109.536 324.400 C 108.931 324.400,103.519 320.063,98.653 315.678 C 91.081 308.855,83.563 300.569,77.717 292.603 C 75.690 289.841,70.000 281.318,70.000 281.044 C 70.000 280.880,69.567 280.174,69.038 279.473 C 68.509 278.773,66.728 275.500,65.081 272.200 C 37.735 217.419,43.642 157.239,81.186 108.136 C 85.669 102.273,99.193 88.570,104.046 84.975 C 104.621 84.549,106.511 83.114,108.246 81.787 C 109.981 80.460,113.110 78.230,115.200 76.830 C 117.290 75.431,119.488 73.952,120.084 73.543 C 120.680 73.134,121.293 72.800,121.446 72.800 C 121.599 72.800,122.306 72.357,123.016 71.815 C 124.995 70.305,139.657 63.168,143.400 61.893 C 144.060 61.668,144.780 61.354,145.000 61.195 C 145.607 60.757,157.260 56.873,159.889 56.233 C 161.160 55.923,163.640 55.314,165.400 54.878 C 170.357 53.652,178.783 52.287,185.600 51.606 C 187.910 51.376,190.430 51.116,191.200 51.029 C 193.753 50.742,211.749 51.159,214.800 51.576 " stroke="none" fill="#04637d" fill-rule="evenodd"></path><path id="path4" d="M192.000 76.239 C 187.363 76.557,178.513 77.685,176.600 78.202 C 175.500 78.499,173.700 78.861,172.600 79.008 C 170.510 79.285,169.752 79.480,165.800 80.759 C 164.480 81.186,162.804 81.657,162.075 81.805 C 159.773 82.273,147.165 87.394,143.000 89.551 C 134.146 94.139,129.029 97.433,121.466 103.416 C 115.661 108.007,115.922 107.777,111.059 112.600 C 106.987 116.638,105.275 118.556,100.169 124.800 C 96.829 128.884,92.581 135.319,89.246 141.345 C 85.299 148.477,85.013 149.111,80.188 161.400 C 79.670 162.720,79.127 164.340,78.982 165.000 C 78.836 165.660,78.220 167.910,77.613 170.000 C 77.006 172.090,76.301 174.970,76.047 176.400 C 73.550 190.439,72.853 199.681,73.537 209.660 C 73.961 215.831,74.465 219.710,76.028 228.800 C 78.259 241.781,87.596 263.702,95.196 273.800 C 96.023 274.900,97.198 276.610,97.806 277.600 C 98.414 278.590,99.651 280.231,100.556 281.247 C 101.460 282.263,103.280 284.398,104.600 285.992 C 107.410 289.384,116.261 298.054,119.294 300.385 C 120.452 301.275,122.247 302.677,123.282 303.502 C 132.568 310.894,144.526 317.238,160.000 322.980 C 169.905 326.656,187.020 329.358,200.200 329.328 C 207.636 329.310,221.999 327.997,223.800 327.169 C 224.240 326.967,225.770 326.635,227.200 326.431 C 228.630 326.228,231.577 325.507,233.749 324.830 C 235.921 324.154,238.022 323.600,238.417 323.600 C 238.812 323.600,239.645 323.339,240.268 323.019 C 240.890 322.700,243.830 321.505,246.800 320.363 C 264.803 313.444,283.958 299.849,295.810 285.580 C 297.124 283.998,298.843 281.960,299.628 281.051 C 300.414 280.143,301.595 278.590,302.252 277.600 C 302.910 276.610,304.437 274.360,305.645 272.600 C 309.939 266.344,314.411 257.816,317.518 249.958 C 318.683 247.011,319.898 244.009,320.218 243.286 C 320.538 242.564,320.800 241.731,320.800 241.436 C 320.800 241.140,321.360 239.121,322.045 236.949 C 322.730 234.777,323.544 231.560,323.854 229.800 C 324.164 228.040,324.586 225.700,324.792 224.600 C 326.054 217.846,326.545 211.712,326.554 202.600 C 326.563 192.496,325.863 184.892,324.342 178.600 C 324.129 177.720,323.802 176.010,323.615 174.800 C 322.895 170.151,319.806 160.708,316.090 151.800 C 313.742 146.170,308.206 136.245,304.811 131.577 C 303.756 130.127,302.621 128.413,302.287 127.769 C 301.954 127.125,301.280 126.239,300.789 125.799 C 300.299 125.360,298.898 123.650,297.678 122.000 C 294.801 118.109,284.702 108.014,280.592 104.920 C 278.828 103.592,277.131 102.199,276.822 101.826 C 276.512 101.453,275.705 100.863,275.029 100.515 C 274.353 100.168,272.810 99.133,271.600 98.215 C 268.408 95.794,263.258 92.745,256.685 89.384 C 250.840 86.396,242.193 83.003,235.400 81.032 C 233.420 80.457,231.260 79.819,230.600 79.613 C 229.940 79.407,228.410 79.114,227.200 78.962 C 225.990 78.810,224.553 78.520,224.006 78.317 C 220.472 77.005,200.106 75.683,192.000 76.239 M211.400 88.398 C 213.820 88.616,216.520 88.964,217.400 89.171 C 218.280 89.378,220.710 89.841,222.800 90.200 C 224.890 90.559,228.040 91.283,229.800 91.810 C 231.560 92.336,233.630 92.938,234.400 93.147 C 240.145 94.705,251.066 99.514,258.000 103.537 C 272.429 111.910,286.825 125.643,296.231 140.007 C 300.688 146.814,306.673 158.927,308.086 164.000 C 308.301 164.770,308.717 165.940,309.012 166.600 C 310.348 169.594,312.224 177.601,313.884 187.400 C 315.405 196.380,314.766 215.141,312.596 225.200 C 312.287 226.630,311.916 228.610,311.771 229.600 C 311.626 230.590,311.319 231.757,311.090 232.193 C 310.860 232.629,310.351 234.159,309.959 235.593 C 307.884 243.175,302.864 254.925,299.294 260.558 C 296.066 265.650,295.130 267.035,291.891 271.514 C 277.024 292.066,247.633 311.116,225.146 314.776 C 223.913 314.977,222.206 315.319,221.352 315.537 C 208.698 318.767,181.511 317.589,169.000 313.270 C 168.340 313.042,165.730 312.189,163.200 311.374 C 143.501 305.027,120.426 288.686,109.387 273.266 C 101.598 262.385,99.294 258.479,94.655 248.295 C 92.546 243.663,88.000 229.811,88.000 228.015 C 88.000 227.486,87.743 226.051,87.430 224.826 C 84.619 213.849,84.600 193.464,87.388 180.400 C 87.693 178.970,88.157 176.729,88.418 175.420 C 88.679 174.111,89.049 172.761,89.239 172.420 C 89.430 172.079,89.846 170.810,90.164 169.600 C 90.739 167.412,92.742 161.723,94.360 157.686 C 95.395 155.103,99.328 147.222,100.569 145.244 C 101.067 144.450,102.262 142.540,103.224 141.000 C 112.412 126.295,124.506 114.593,141.800 103.677 C 149.640 98.729,167.571 91.910,177.200 90.216 C 179.290 89.848,181.720 89.374,182.600 89.162 C 187.015 88.098,203.296 87.666,211.400 88.398 " stroke="none" fill="#95bcc4" fill-rule="evenodd"></path></g></svg>